<svg width="68" height="68" viewBox="0 0 68 68" fill="none" xmlns="http://www.w3.org/2000/svg">
<rect x="2" y="2" width="64" height="64" rx="22" fill="#2969FE"/>
<rect x="2" y="2" width="64" height="64" rx="22" stroke="black" stroke-width="4"/>
<path fill-rule="evenodd" clip-rule="evenodd" d="M44.5 36.8499C44 37.1499 43.4 37.2499 43 36.9499C42.4 36.6499 42.1 35.8499 42.1 34.8499V31.6499C42.1 30.1499 41.5 29.0499 40.5 28.7499C38.8 28.2499 37.5 30.3499 37 31.1499L34 36.0499V30.0499C34 28.6499 33.5001 27.8499 32.7001 27.6499C32.1 27.4499 31.3 27.5499 30.5 28.7499L23.8 39.5499C22.9 37.8499 22.4 35.9499 22.4 33.9499C22.4 27.4499 27.6 22.1499 34 22.1499C40.4 22.1499 45.6 27.5499 45.6 34.0499C45.7 35.3499 45.3 36.3499 44.5 36.8499ZM48.2001 34.0499C48.2001 26.0499 41.8 19.6499 34 19.6499C26.2 19.6499 19.8 26.1499 19.8 34.0499C19.8 41.9499 26.2 48.4499 34 48.4499C37.6 48.4499 41 47.0499 43.7001 44.5499C44.2001 44.0499 44.3 43.2499 43.8 42.6499C43.3 42.1499 42.5 42.0499 42 42.5499C39.9 44.5499 37 45.7499 34.1 45.7499C30.7 45.7499 27.6 44.2499 25.4 41.8499L31.5 32.0499V36.5499C31.5 38.7499 32.3 39.4499 33 39.6499C33.7 39.8499 34.8001 39.7499 35.9001 37.8499L39.2001 32.4499C39.3001 32.2499 39.4 32.1499 39.5 31.9499V34.6499C39.5 36.6499 40.3001 38.2499 41.7001 39.0499C43 39.7499 44.6001 39.7499 45.9001 38.8499C47.5001 38.1499 48.3001 36.2499 48.2001 34.0499Z" fill="white"/>
</svg>
