<svg width="132" height="44" viewBox="0 0 132 44" fill="none" xmlns="http://www.w3.org/2000/svg">
<path d="M93.7031 17.0056C91.1374 17.3245 89.2458 18.7813 88.55 20.9556C88.0716 22.4342 88.1296 23.8402 88.7312 25.268C89.4415 26.9567 90.9707 28.1599 93.0001 28.6165C93.5872 28.7542 95.1019 28.7614 95.7107 28.6455C98.0662 28.1816 99.7115 26.7176 100.393 24.4998C100.552 23.9707 100.574 23.8112 100.574 22.869C100.574 21.9268 100.552 21.7674 100.393 21.2383C99.7187 19.0495 98.1315 17.6072 95.8629 17.1288C95.3918 17.0346 94.1017 16.9621 93.7031 17.0056ZM95.1382 19.883C95.9862 20.1076 96.7906 20.6585 97.1603 21.3035C97.7329 22.2747 97.7111 23.5576 97.1168 24.4853C96.0514 26.1595 93.6161 26.4349 92.1521 25.0433C90.9345 23.8837 90.891 22.0428 92.0506 20.7889C92.8261 19.9627 94.0583 19.6075 95.1382 19.883Z" fill="#1D1D1B"/>
<path d="M106.242 17.0056C103.676 17.3245 101.784 18.7813 101.089 20.9556C100.61 22.4342 100.668 23.8402 101.27 25.268C101.98 26.9567 103.509 28.1599 105.539 28.6165C106.126 28.7542 107.641 28.7614 108.249 28.6455C110.605 28.1816 112.25 26.7176 112.931 24.4998C113.091 23.9707 113.113 23.8112 113.113 22.869C113.113 21.9268 113.091 21.7674 112.931 21.2383C112.257 19.0495 110.67 17.6072 108.402 17.1288C107.93 17.0346 106.64 16.9621 106.242 17.0056ZM107.684 19.883C108.539 20.1076 109.336 20.6585 109.706 21.3035C110.279 22.2747 110.257 23.5576 109.663 24.4853C108.597 26.1595 106.162 26.4349 104.698 25.0433C103.48 23.8837 103.437 22.0428 104.596 20.7889C105.365 19.9627 106.597 19.6075 107.684 19.883Z" fill="#1D1D1B"/>
<path d="M123.129 17.0418C121.636 17.2593 120.512 18.216 120.15 19.593C119.802 20.8904 120.049 22.2167 120.744 22.8618C121.157 23.2459 121.65 23.4706 123.006 23.9054C124.317 24.3258 124.615 24.507 124.752 24.9491C124.905 25.4564 124.528 26.0653 123.955 26.2247C123.643 26.3117 123.056 26.3117 122.665 26.2175C122.237 26.116 121.469 25.7391 121.143 25.4564C120.998 25.3187 120.831 25.2173 120.802 25.2173C120.773 25.2173 120.607 25.4637 120.447 25.7681C120.223 26.1957 120.15 26.2899 120.136 26.174L120.114 26.029H118.367H116.628V21.6369V17.2448H115.185H113.743V22.8763V28.5077H116.925H120.107V28.1961C120.107 28.0294 120.121 27.8917 120.136 27.8917C120.15 27.8917 120.411 28.0149 120.715 28.1526C121.658 28.5947 122.259 28.7252 123.426 28.7252C124.564 28.7252 125.1 28.6237 125.803 28.2831C126.361 28.0149 127.115 27.2684 127.369 26.7465C127.869 25.7029 127.941 24.2968 127.521 23.4053C127.448 23.2386 127.202 22.9125 126.97 22.6878C126.477 22.195 125.948 21.9268 124.593 21.4919C124.057 21.3252 123.52 21.1223 123.397 21.0498C122.962 20.7817 122.875 20.1946 123.216 19.825C123.81 19.1872 124.868 19.2451 125.97 19.9772L126.187 20.1149L126.774 18.9915C127.086 18.3827 127.347 17.8681 127.333 17.8608C127.267 17.7956 126.448 17.4695 125.984 17.3245C125.006 17.0201 123.977 16.9114 123.129 17.0418Z" fill="#1D1D1B"/>
<path d="M42.0993 21.2745V28.6962H44.723C46.1653 28.6962 47.6728 28.6527 48.0642 28.6092C51.3039 28.2106 53.6957 26.2464 54.4639 23.3618C54.7176 22.4051 54.7756 20.7237 54.5944 19.7235C54.2247 17.7811 53.2173 16.2156 51.6663 15.1574C50.9705 14.6791 50.3472 14.4181 49.347 14.1427C48.5643 13.9325 48.4411 13.9325 45.3245 13.8891L42.1066 13.8528V21.2745H42.0993ZM47.825 16.8824C49.8616 17.3172 51.2169 19.0204 51.2169 21.1513C51.2097 22.5646 50.7748 23.7822 49.9631 24.5867C49.1586 25.3984 47.9627 25.7898 46.2957 25.7971H45.5057V21.2817V16.7664H46.3827C46.8611 16.7664 47.5061 16.8244 47.825 16.8824Z" fill="#1D1D1B"/>
<path d="M55.8193 21.2817V28.6962L62.0668 28.6889H68.3071L69.9161 26.4276C70.8076 25.1955 71.5541 24.1808 71.5758 24.1808C71.6121 24.1808 72.3586 25.1955 73.2428 26.4421L74.859 28.7034H76.8884C77.9973 28.7034 78.9105 28.6744 78.9105 28.6527C78.9105 28.6237 77.7146 26.9567 76.2724 24.9491L73.6342 21.2962L76.1564 17.7738C77.548 15.8459 78.7583 14.1862 78.838 14.092C78.9975 13.9325 78.9975 13.9543 78.9975 15.4401V16.9476H80.534H82.0705V22.8255V28.7034H83.9042H85.7379V22.8255V16.9476L87.5281 16.9331L89.311 16.9041L88.3543 15.3966L87.3976 13.8891L81.1356 13.8818H74.8663L73.2573 16.1431C72.3658 17.3752 71.6193 18.3899 71.5976 18.4044C71.5686 18.4044 70.8221 17.3897 69.9378 16.1431L68.3216 13.8818H62.0813H55.8338V21.2817H55.8193ZM66.8431 17.5709C68.2781 19.5568 69.4522 21.2237 69.4522 21.2745C69.4522 21.3252 68.2781 23.0067 66.8358 25.0071L64.2121 28.6454L64.1831 27.2249L64.1687 25.8043H61.6972H59.2257V24.1373V22.4776H61.2261H63.2264V21.0715V19.6655H61.2261H59.2257V18.2159V16.7664H61.6972H64.1687V15.3603C64.1687 14.5848 64.1831 13.9543 64.2049 13.9543C64.2266 13.9543 65.408 15.585 66.8431 17.5709Z" fill="#1D1D1B"/>
<path fill-rule="evenodd" clip-rule="evenodd" d="M16.2249 4.02492C13.9057 5.23529 11.9995 6.25722 12.0068 6.3007C12.0068 6.40942 17.5803 9.22878 17.7759 9.22154C17.8629 9.22154 18.5152 8.91713 19.2255 8.55474L20.5156 7.8952L21.9216 8.61998L23.3277 9.34475L25.6325 8.30832C29.0969 6.75006 29.4593 6.57612 29.4013 6.52538C29.3288 6.44566 28.0822 5.77887 24.7048 4.00317C23.074 3.14794 21.494 2.29996 21.1896 2.13326C20.8852 1.95932 20.5953 1.82886 20.5446 1.82886C20.4938 1.82886 18.5442 2.81455 16.2249 4.02492ZM6.04188 9.30126L3.62114 10.5479V16.0271C3.62114 19.0422 3.65013 21.5064 3.69362 21.5064C3.72986 21.5064 4.91848 20.9918 6.33904 20.3613L8.91198 19.2161V13.4397L10.1658 14.121C11.137 14.6501 12.101 15.1719 13.0722 15.701L14.7247 16.5925L15.4567 16.2591C15.9205 16.0489 16.3771 15.8387 16.8337 15.6285C17.1889 15.4618 18.0586 15.0704 18.7689 14.7588C19.4792 14.4471 20.1315 14.1282 20.2257 14.0558C20.3489 13.9615 18.8414 13.1281 14.6522 10.9755C11.4922 9.352 8.80326 8.03291 8.68005 8.04016C8.55684 8.04741 7.36821 8.61273 6.04188 9.30126ZM29.8289 9.64915C28.1837 10.3957 26.8356 11.0335 26.8356 11.0697C26.8356 11.1059 27.7343 11.6423 28.8287 12.2583C29.9304 12.8744 30.8218 13.4107 30.8218 13.4542C30.8218 13.4977 29.8507 13.9688 28.662 14.4979C27.4734 15.0342 24.4728 16.3895 21.9869 17.5129L13.6737 21.2745C11.5791 22.2167 9.69473 23.0719 9.48455 23.1662C5.21564 25.1013 4.03426 25.6376 3.87481 25.7319C3.71536 25.8261 3.67912 26.3624 3.65013 29.0658L3.61389 32.291L5.77371 33.3927L7.93354 34.4944L10.9341 33.139C12.5793 32.3925 13.9347 31.7475 13.9347 31.6967C13.9347 31.646 13.6302 31.4503 13.2606 31.2546C12.891 31.0589 12.1227 30.6241 11.5501 30.2907C10.9848 29.9573 10.4195 29.6529 10.2963 29.6094C10.1731 29.5659 10.0716 29.5007 10.0716 29.4499C10.0716 29.4064 11.3907 28.7759 13.0069 28.0584C16.138 26.6596 18.5297 25.5796 23.6683 23.2531C25.9659 22.2167 28.2634 21.173 30.5682 20.1366C32.5903 19.2234 34.9386 18.158 35.7865 17.7666L37.3303 17.0563L37.3665 13.7948L37.4028 10.5334L35.214 9.41723C34.0108 8.80117 32.9744 8.29383 32.9237 8.29383C32.8657 8.29383 31.4741 8.90988 29.8289 9.64915ZM36.7505 21.4195C36.4243 21.5789 35.7865 21.8761 35.3299 22.079C34.8733 22.2819 34.0036 22.6733 33.402 22.9487L32.3076 23.4488L32.2859 26.3117C32.2714 27.8844 32.2134 29.1673 32.1554 29.16C32.025 29.1383 29.9739 28.0874 27.9083 26.9785C26.4152 26.1812 26.321 26.145 25.9731 26.3189C25.7702 26.4204 24.5598 26.964 23.2842 27.522C22.0086 28.0874 20.9215 28.5802 20.8707 28.6309C20.82 28.6744 23.3857 30.066 26.5819 31.7257L32.3801 34.7408L34.8588 33.4579C36.2214 32.7549 37.381 32.1098 37.4318 32.0301C37.555 31.8489 37.5405 21.1078 37.4245 21.1223C37.3738 21.1295 37.0694 21.26 36.7505 21.4195ZM23.0233 34.0233C22.5957 34.2044 22.1608 34.3929 21.7332 34.5813C20.4359 35.1394 20.6895 35.1611 19.1458 34.3929C18.1166 33.8783 17.6745 33.7261 17.4788 33.7986C17.3338 33.8565 16.0945 34.4146 14.7174 35.0379C13.3476 35.6612 12.1735 36.1758 12.1155 36.1758C11.5357 36.1758 12.4996 36.7484 16.1959 38.6111L20.5301 40.7999L22.3565 39.9012C23.3567 39.4083 25.3861 38.4154 26.8501 37.6978C28.3214 36.9803 29.5028 36.3788 29.481 36.3498C29.4593 36.328 28.2272 35.6975 26.7414 34.9437L24.0452 33.5811L23.0233 34.0233Z" fill="#05A3C9"/>
</svg>
