<svg width="38" height="38" viewBox="0 0 38 38" fill="none" xmlns="http://www.w3.org/2000/svg">
<g clip-path="url(#clip0_19_134)">
<path d="M37.295 18.8081C37.295 22.2105 37.295 25.6129 37.295 29.0154C37.295 30.0452 37.22 31.0649 37.01 32.0795C36.685 33.6545 35.825 34.8863 34.615 35.8959C33.64 36.7086 32.51 37.1478 31.265 37.3093C30.39 37.4204 29.505 37.4759 28.62 37.4709C22.055 37.4709 15.49 37.4709 8.925 37.4658C7.95 37.4709 6.98 37.375 6.025 37.1781C4.91 36.9408 3.955 36.4108 3.115 35.6485C2.22 34.8358 1.535 33.8766 1.165 32.7055C0.954999 32.0341 0.85 31.3476 0.795 30.6509C0.705 29.5605 0.709999 28.4702 0.709999 27.3798C0.709999 21.1706 0.71 14.9615 0.715 8.7524C0.715 7.60141 0.82 6.45549 1.14 5.34492C1.37 4.55237 1.78 3.86078 2.29 3.22473C3.055 2.27569 3.98 1.54372 5.115 1.09444C5.76 0.842033 6.435 0.715833 7.12 0.645163C8.105 0.539153 9.09 0.529053 10.075 0.529053C16.25 0.529053 22.42 0.529053 28.59 0.529053C29.305 0.529053 30.02 0.534103 30.73 0.614873C32.08 0.771363 33.365 1.11463 34.465 1.96271C35.8 2.99251 36.68 4.33025 37.025 6.00622C37.205 6.87953 37.295 7.77304 37.295 8.6615C37.295 12.0488 37.295 15.4259 37.295 18.8081Z" fill="#285FB0"/>
<path d="M23.1599 17.4654C22.9599 17.7784 22.7599 18.0965 22.5649 18.4094C21.8199 19.5957 21.1049 20.7972 20.3799 21.9936C20.1499 22.3722 19.8749 22.7154 19.5149 22.983C18.4149 23.8008 17.2799 22.9729 17.1499 22.0037C17.0599 21.3777 17.0049 20.7467 16.9949 20.1157C16.9899 19.3837 16.9949 18.6517 16.9949 17.9248C16.9949 17.8188 16.9849 17.7128 16.9799 17.6068C16.9299 17.6068 16.9249 17.6472 16.9099 17.6674C15.5399 19.9541 14.0999 22.2005 12.6999 24.4671C12.6149 24.6034 12.5349 24.7448 12.4449 24.8811C12.4049 24.9416 12.4049 24.982 12.4599 25.0426C13.8749 26.5217 15.5549 27.5212 17.5849 27.8342C20.0499 28.2178 22.2899 27.6575 24.2949 26.1532C24.5399 25.9715 24.7599 25.7594 24.9999 25.5676C25.2949 25.3354 25.6199 25.194 26.0099 25.2849C26.0649 25.295 26.1099 25.3202 26.1499 25.3556C26.2399 25.4465 26.3299 25.5272 26.4299 25.608C26.7299 25.8301 26.7449 26.1279 26.6649 26.4561C26.5649 26.8448 26.2999 27.1123 26.0049 27.3546C24.6449 28.4955 23.1149 29.3082 21.3749 29.6767C18.0449 30.3885 15.0099 29.7121 12.3349 27.5868C10.2949 25.9664 8.9999 23.8462 8.4299 21.2818C8.1349 19.9541 8.1049 18.6114 8.3049 17.2635C8.9149 13.0736 11.8749 9.8984 15.1899 8.6263C16.2599 8.2123 17.3849 7.98515 18.5299 7.94982C19.7799 7.90943 21.0049 8.0205 22.2049 8.4092C23.8049 8.919 25.2649 9.7974 26.4699 10.9736C28.1349 12.5991 29.1849 14.5628 29.6249 16.8597C29.8399 17.9803 29.8899 19.1111 29.7099 20.2368C29.4949 21.5948 28.4049 22.9426 26.9299 23.2253C25.4699 23.508 24.1099 22.7457 23.5199 21.307C23.2649 20.6861 23.1949 20.0349 23.1949 19.3736C23.1949 18.7628 23.1949 18.157 23.1949 17.5462C23.1949 17.526 23.1949 17.5058 23.1899 17.4856L23.1599 17.4654Z" fill="#FEFEFE"/>
<path d="M18.97 20.4084V19.4947C18.97 18.2378 18.975 16.9757 18.96 15.7188C18.955 15.2089 18.84 14.7243 18.47 14.3406C18.135 14.0024 17.63 13.9065 17.195 14.0933C16.895 14.2245 16.64 14.4416 16.455 14.7193C16.015 15.3503 15.645 16.0267 15.23 16.6729C13.89 18.7375 12.64 20.8577 11.32 22.9325C11.215 23.0991 11.125 23.1041 11.035 22.9173C10.925 22.6952 10.83 22.468 10.74 22.2358C10.355 21.2565 10.155 20.2166 10.14 19.1616C10.11 16.9606 10.72 14.9666 12.095 13.2503C13.445 11.5642 15.18 10.4688 17.3 10.075C20.365 9.50959 23.025 10.3729 25.24 12.5587C26.62 13.9166 27.42 15.6027 27.74 17.526C27.86 18.2327 27.885 18.9546 27.815 19.6664C27.76 20.1914 27.55 20.6507 27.135 20.989C26.79 21.2666 26.4 21.4231 25.965 21.2464C25.505 21.0647 25.27 20.6861 25.19 20.2015C25.075 19.4947 25.09 18.783 25.105 18.0712C25.115 17.4654 25.155 16.8495 25.025 16.2488C24.87 15.5522 24.47 15.0575 23.755 14.8757C23.41 14.7899 23.09 14.906 22.79 15.0676C22.335 15.3149 21.99 15.6885 21.7 16.1075C21.18 16.8495 20.73 17.6421 20.25 18.4144C19.85 19.0606 19.45 19.7068 19.05 20.3529C19.035 20.3731 19.02 20.3983 19.005 20.4185L18.97 20.4084Z" fill="#285FB0"/>
</g>
<defs>
<clipPath id="clip0_19_134">
<rect width="38" height="38" fill="white"/>
</clipPath>
</defs>
</svg>
