<svg width="40" height="40" viewBox="0 0 40 40" fill="none" xmlns="http://www.w3.org/2000/svg">
<rect width="40" height="40" rx="8" fill="#285FB0"/>
<path fill-rule="evenodd" clip-rule="evenodd" d="M16.4766 6.65023C14.7338 7.55977 13.3014 8.3277 13.3068 8.36037C13.3068 8.44207 17.495 10.5607 17.6421 10.5552C17.7074 10.5552 18.1976 10.3265 18.7314 10.0542L19.7008 9.55856L20.7574 10.1032L21.814 10.6478L23.5459 9.869C26.1492 8.69804 26.4215 8.56733 26.378 8.52921C26.3235 8.4693 25.3867 7.96824 22.8488 6.63389C21.6233 5.99123 20.436 5.35401 20.2073 5.22874C19.9786 5.09803 19.7607 5 19.7226 5C19.6845 5 18.2194 5.7407 16.4766 6.65023ZM8.82451 10.6151L7.00545 11.5519V15.6693C7.00545 17.935 7.02723 19.7867 7.05991 19.7867C7.08714 19.7867 7.98034 19.4 9.04781 18.9262L10.9813 18.0657V13.725L11.9235 14.2369C12.6533 14.6345 13.3776 15.0267 14.1074 15.4242L15.3492 16.0941L15.8993 15.8436C16.2478 15.6857 16.591 15.5277 16.9341 15.3698C17.2009 15.2445 17.8545 14.9504 18.3882 14.7162C18.922 14.482 19.4121 14.2424 19.4829 14.1879C19.5755 14.1171 18.4427 13.4908 15.2947 11.8732C12.9201 10.6533 10.8996 9.66204 10.807 9.66749C10.7144 9.67293 9.82119 10.0977 8.82451 10.6151ZM26.6993 10.8766C25.463 11.4375 24.45 11.9168 24.45 11.944C24.45 11.9713 25.1253 12.3743 25.9477 12.8372C26.7756 13.3002 27.4454 13.7032 27.4454 13.7359C27.4454 13.7686 26.7156 14.1226 25.8224 14.5201C24.9293 14.9232 22.6745 15.9416 20.8064 16.7858L14.5595 19.6124C12.9855 20.3205 11.5695 20.9631 11.4115 21.0339C8.20363 22.4881 7.31589 22.8911 7.19607 22.9619C7.07625 23.0327 7.04902 23.4358 7.02723 25.4672L7 27.8908L8.623 28.7187L10.246 29.5465L12.5008 28.5281C13.7371 27.9671 14.7555 27.4824 14.7555 27.4442C14.7555 27.4061 14.5268 27.2591 14.249 27.112C13.9713 26.965 13.394 26.6382 12.9637 26.3877C12.5389 26.1371 12.1141 25.9084 12.0215 25.8757C11.9289 25.843 11.8527 25.794 11.8527 25.7559C11.8527 25.7232 12.8439 25.2494 14.0584 24.7102C16.4112 23.6591 18.2085 22.8476 22.0699 21.0993C23.7964 20.3205 25.5229 19.5362 27.2548 18.7574C28.7743 18.0711 30.539 17.2705 31.1762 16.9764L32.3362 16.4427L32.3635 13.9919L32.3907 11.541L30.7459 10.7023C29.8418 10.2394 29.063 9.85811 29.0249 9.85811C28.9813 9.85811 27.9356 10.321 26.6993 10.8766ZM31.9005 19.7214C31.6554 19.8412 31.1762 20.0645 30.8331 20.217C30.4899 20.3695 29.8364 20.6636 29.3843 20.8705L28.5619 21.2463L28.5456 23.3976C28.5347 24.5795 28.4911 25.5435 28.4476 25.538C28.3495 25.5217 26.8082 24.732 25.256 23.8987C24.1341 23.2996 24.0633 23.2724 23.8019 23.4031C23.6494 23.4793 22.7398 23.8878 21.7813 24.3072C20.8227 24.732 20.0058 25.1023 19.9677 25.1405C19.9295 25.1731 21.8575 26.2188 24.2594 27.466L28.6164 29.7317L30.479 28.7677C31.5029 28.2394 32.3744 27.7547 32.4125 27.6948C32.5051 27.5586 32.4942 19.4872 32.407 19.4981C32.3689 19.5035 32.1402 19.6016 31.9005 19.7214ZM21.5852 29.1925C21.2639 29.3287 20.9371 29.4703 20.6158 29.6119C19.6409 30.0312 19.8315 30.0476 18.6714 29.4703C17.8981 29.0836 17.5658 28.9692 17.4188 29.0237C17.3099 29.0672 16.3785 29.4866 15.3437 29.955C14.3144 30.4234 13.4321 30.8101 13.3885 30.8101C12.9528 30.8101 13.6772 31.2403 16.4548 32.64L19.7117 34.2848L21.0842 33.6095C21.8357 33.2391 23.3607 32.493 24.4609 31.9538C25.5665 31.4146 26.4542 30.9626 26.4379 30.9408C26.4215 30.9244 25.4957 30.4506 24.3792 29.8842L22.3531 28.8603L21.5852 29.1925Z" fill="white"/>
</svg>
