<svg width="40" height="40" viewBox="0 0 40 40" fill="none" xmlns="http://www.w3.org/2000/svg">
<rect width="40" height="40" rx="8" fill="#285FB0"/>
<g clip-path="url(#clip0_76_47)">
<path fill-rule="evenodd" clip-rule="evenodd" d="M21.6515 15.9055C22.4162 15.5242 23.3893 14.9628 24.3636 14.1937C24.569 14.6203 24.5915 14.9926 24.4856 15.2932C24.4106 15.505 24.2693 15.6893 24.0835 15.8358C23.8822 15.9943 23.6309 16.1096 23.3531 16.1719C22.8259 16.2907 22.2104 16.2213 21.6515 15.9055ZM21.7841 19.8127L22.7964 20.3974C20.7294 21.5559 20.1675 23.7071 19.5 25.8023C18.8326 23.7071 18.2706 21.5559 16.2036 20.3974L17.216 19.8127C17.3139 19.7757 17.3976 19.7086 17.4551 19.6211C17.5126 19.5336 17.5409 19.4302 17.536 19.3256C17.4432 17.3633 17.9731 16.4956 18.6877 15.9507C18.9441 15.7556 19.2239 15.6576 19.5 15.6576C19.7761 15.6576 20.0559 15.7556 20.3123 15.9507C21.027 16.4956 21.5568 17.3633 21.4641 19.3256C21.4591 19.4302 21.4875 19.5336 21.5449 19.6211C21.6024 19.7086 21.6861 19.7757 21.7841 19.8127ZM19.5 7C20.6701 7.03142 21.8432 7.25858 22.8613 7.7005C23.5663 8.00692 24.2241 8.41167 24.8198 8.89567C25.0888 9.11417 25.3103 9.32525 25.5543 9.56825C26.2124 9.591 27.1741 8.85992 27.6206 8.17583C26.8522 10.695 23.3457 13.6699 20.9181 14.8083C20.9171 14.8078 20.9165 14.8073 20.9157 14.8068C20.4801 14.4741 19.9901 14.3078 19.5 14.3078C19.0099 14.3078 18.52 14.4741 18.0843 14.8068C18.0836 14.8072 18.0829 14.8079 18.0819 14.8083C15.6542 13.6699 12.1478 10.695 11.3794 8.17583C11.8258 8.85992 12.7876 9.591 13.4456 9.56825C13.6897 9.32533 13.9112 9.11417 14.1801 8.89567C14.7758 8.41167 15.4336 8.00692 16.1386 7.7005C17.1568 7.25858 18.3299 7.03142 19.5 7ZM17.3485 15.9055C16.5838 15.5242 15.6106 14.9628 14.6365 14.1937C14.4311 14.6203 14.4086 14.9926 14.5143 15.2932C14.5894 15.505 14.7307 15.6893 14.9165 15.8358C15.1178 15.9943 15.3691 16.1096 15.647 16.1719C16.1741 16.2907 16.7896 16.2213 17.3485 15.9055Z" fill="white"/>
<path fill-rule="evenodd" clip-rule="evenodd" d="M25.4306 13.2513C25.9669 12.7101 26.4395 12.111 26.8195 11.5764L27.0125 11.9397C27.6338 13.1827 27.9567 14.4208 27.9567 15.8142L27.9553 18.0252L27.967 19.1713C28.012 21.9852 28.6208 24.8321 30 27.4374L27.1144 25.1106L25.0727 28.4238L22.9277 26.4046L19.5 31.967L16.0723 26.4047L13.9274 28.4239L11.8857 25.1107L9 27.4375C10.3792 24.8322 10.988 21.9853 11.0331 19.1714L11.0448 18.0252L11.0434 15.8142C11.0434 14.4208 11.3662 13.1827 11.9877 11.9397L12.1806 11.5765C12.5606 12.1111 13.0331 12.7101 13.5695 13.2514L13.402 13.5993C13.0766 14.2751 12.9688 15.0307 13.2223 15.7492C13.3858 16.2121 13.684 16.609 14.0685 16.912C14.4418 17.2062 14.8837 17.4046 15.3463 17.5087C15.6476 17.5766 15.9546 17.6045 16.2596 17.595C16.1884 17.9984 16.1573 18.4168 16.1553 18.8432L13.4333 20.4153L15.5338 21.5928C15.7017 21.6869 15.8615 21.7947 16.0117 21.9152C17.7434 23.47 18.7846 28.0698 19.5001 30.3165C20.2157 28.0698 21.2568 23.47 22.9886 21.9152C23.1387 21.7947 23.2985 21.6869 23.4664 21.5928L25.5669 20.4153L22.8448 18.8432C22.8428 18.4168 22.8117 17.9984 22.7406 17.595C23.0456 17.6045 23.3526 17.5766 23.6539 17.5087C24.1165 17.4046 24.5584 17.2062 24.9317 16.912C25.3161 16.609 25.6144 16.2121 25.7777 15.7492C26.0313 15.0307 25.9235 14.2752 25.5982 13.5993L25.4307 13.2514L25.4306 13.2513Z" fill="white"/>
</g>
<defs>
<clipPath id="clip0_76_47">
<rect width="21" height="25" fill="white" transform="translate(9 7)"/>
</clipPath>
</defs>
</svg>
